<mxfile host="app.diagrams.net" agent="Mozilla/5.0 (Windows NT 10.0; Win64; x64) AppleWebKit/537.36 (KHTML, like Gecko) Chrome/128.0.0.0 Safari/537.36" version="24.7.6">
  <diagram name="Page-1" id="VvIIs1xFeACwbEAWfOXU">
    <mxGraphModel dx="1419" dy="745" grid="1" gridSize="10" guides="1" tooltips="1" connect="1" arrows="1" fold="1" page="1" pageScale="1" pageWidth="850" pageHeight="1100" math="0" shadow="0">
      <root>
        <mxCell id="0" />
        <mxCell id="1" parent="0" />
        <mxCell id="R1mZsVE5FB00UeXDSoug-6" value="Router" style="sketch=0;points=[[0.5,0,0],[1,0.5,0],[0.5,1,0],[0,0.5,0],[0.145,0.145,0],[0.8555,0.145,0],[0.855,0.8555,0],[0.145,0.855,0]];verticalLabelPosition=bottom;html=1;verticalAlign=top;aspect=fixed;align=center;pointerEvents=1;shape=mxgraph.cisco19.rect;prIcon=router;fillColor=#FAFAFA;strokeColor=#005073;" vertex="1" parent="1">
          <mxGeometry x="411.5" y="440" width="50" height="50" as="geometry" />
        </mxCell>
        <mxCell id="R1mZsVE5FB00UeXDSoug-18" style="rounded=0;orthogonalLoop=1;jettySize=auto;html=1;entryX=0;entryY=0.5;entryDx=0;entryDy=0;exitX=1;exitY=0.317;exitDx=0;exitDy=0;exitPerimeter=0;shape=link;fillColor=#e1d5e7;strokeColor=#9673a6;" edge="1" parent="1" source="R1mZsVE5FB00UeXDSoug-8" target="R1mZsVE5FB00UeXDSoug-10">
          <mxGeometry relative="1" as="geometry" />
        </mxCell>
        <mxCell id="R1mZsVE5FB00UeXDSoug-24" value="3. Send Alerts" style="edgeLabel;html=1;align=center;verticalAlign=middle;resizable=0;points=[];" vertex="1" connectable="0" parent="R1mZsVE5FB00UeXDSoug-18">
          <mxGeometry x="-0.116" y="-1" relative="1" as="geometry">
            <mxPoint as="offset" />
          </mxGeometry>
        </mxCell>
        <mxCell id="R1mZsVE5FB00UeXDSoug-39" style="edgeStyle=orthogonalEdgeStyle;rounded=0;orthogonalLoop=1;jettySize=auto;html=1;entryX=0;entryY=0.5;entryDx=0;entryDy=0;exitX=0.75;exitY=1;exitDx=0;exitDy=0;shape=link;fillColor=#dae8fc;strokeColor=#6c8ebf;entryPerimeter=0;" edge="1" parent="1" source="R1mZsVE5FB00UeXDSoug-8" target="R1mZsVE5FB00UeXDSoug-41">
          <mxGeometry relative="1" as="geometry">
            <mxPoint x="420.5" y="685" as="targetPoint" />
          </mxGeometry>
        </mxCell>
        <mxCell id="R1mZsVE5FB00UeXDSoug-40" value="8. Perform Responsive Action" style="edgeLabel;html=1;align=center;verticalAlign=middle;resizable=0;points=[];" vertex="1" connectable="0" parent="R1mZsVE5FB00UeXDSoug-39">
          <mxGeometry x="-0.1203" y="2" relative="1" as="geometry">
            <mxPoint as="offset" />
          </mxGeometry>
        </mxCell>
        <mxCell id="R1mZsVE5FB00UeXDSoug-8" value="Wazuh Manager" style="image;aspect=fixed;perimeter=ellipsePerimeter;html=1;align=center;shadow=0;dashed=0;spacingTop=3;image=img/lib/active_directory/internet_cloud.svg;" vertex="1" parent="1">
          <mxGeometry x="140" y="260" width="50" height="31.5" as="geometry" />
        </mxCell>
        <mxCell id="R1mZsVE5FB00UeXDSoug-9" value="The HIVE" style="image;aspect=fixed;perimeter=ellipsePerimeter;html=1;align=center;shadow=0;dashed=0;spacingTop=3;image=img/lib/active_directory/internet_cloud.svg;" vertex="1" parent="1">
          <mxGeometry x="740" y="180" width="50" height="31.5" as="geometry" />
        </mxCell>
        <mxCell id="R1mZsVE5FB00UeXDSoug-22" style="edgeStyle=orthogonalEdgeStyle;rounded=0;orthogonalLoop=1;jettySize=auto;html=1;shape=link;fillColor=#d5e8d4;strokeColor=#82b366;" edge="1" parent="1" source="R1mZsVE5FB00UeXDSoug-10" target="R1mZsVE5FB00UeXDSoug-7">
          <mxGeometry relative="1" as="geometry" />
        </mxCell>
        <mxCell id="R1mZsVE5FB00UeXDSoug-23" value="4.Enrich IOC" style="edgeLabel;html=1;align=center;verticalAlign=middle;resizable=0;points=[];" vertex="1" connectable="0" parent="R1mZsVE5FB00UeXDSoug-22">
          <mxGeometry x="-0.2191" y="1" relative="1" as="geometry">
            <mxPoint as="offset" />
          </mxGeometry>
        </mxCell>
        <mxCell id="R1mZsVE5FB00UeXDSoug-26" style="rounded=0;orthogonalLoop=1;jettySize=auto;html=1;shape=link;" edge="1" parent="1" source="R1mZsVE5FB00UeXDSoug-10" target="R1mZsVE5FB00UeXDSoug-9">
          <mxGeometry relative="1" as="geometry" />
        </mxCell>
        <mxCell id="R1mZsVE5FB00UeXDSoug-27" value="5.Send alerts" style="edgeLabel;html=1;align=center;verticalAlign=middle;resizable=0;points=[];" vertex="1" connectable="0" parent="R1mZsVE5FB00UeXDSoug-26">
          <mxGeometry x="0.1928" y="2" relative="1" as="geometry">
            <mxPoint y="1" as="offset" />
          </mxGeometry>
        </mxCell>
        <mxCell id="R1mZsVE5FB00UeXDSoug-30" style="rounded=0;orthogonalLoop=1;jettySize=auto;html=1;entryX=1;entryY=0.25;entryDx=0;entryDy=0;fillColor=#ffe6cc;strokeColor=#d79b00;shape=link;" edge="1" parent="1" source="R1mZsVE5FB00UeXDSoug-10" target="R1mZsVE5FB00UeXDSoug-7">
          <mxGeometry relative="1" as="geometry">
            <Array as="points">
              <mxPoint x="560" y="200" />
            </Array>
          </mxGeometry>
        </mxCell>
        <mxCell id="R1mZsVE5FB00UeXDSoug-31" value="6. Send Email" style="edgeLabel;html=1;align=center;verticalAlign=middle;resizable=0;points=[];" vertex="1" connectable="0" parent="R1mZsVE5FB00UeXDSoug-30">
          <mxGeometry x="-0.1949" y="2" relative="1" as="geometry">
            <mxPoint as="offset" />
          </mxGeometry>
        </mxCell>
        <mxCell id="R1mZsVE5FB00UeXDSoug-37" style="edgeStyle=orthogonalEdgeStyle;rounded=0;orthogonalLoop=1;jettySize=auto;html=1;entryX=0;entryY=0.25;entryDx=0;entryDy=0;shape=link;fillColor=#dae8fc;strokeColor=#6c8ebf;" edge="1" parent="1" source="R1mZsVE5FB00UeXDSoug-10" target="R1mZsVE5FB00UeXDSoug-8">
          <mxGeometry relative="1" as="geometry" />
        </mxCell>
        <mxCell id="R1mZsVE5FB00UeXDSoug-38" value="8. Send Responsive Action" style="edgeLabel;html=1;align=center;verticalAlign=middle;resizable=0;points=[];" vertex="1" connectable="0" parent="R1mZsVE5FB00UeXDSoug-37">
          <mxGeometry x="0.3672" y="1" relative="1" as="geometry">
            <mxPoint as="offset" />
          </mxGeometry>
        </mxCell>
        <mxCell id="R1mZsVE5FB00UeXDSoug-10" value="Shuffle" style="image;aspect=fixed;perimeter=ellipsePerimeter;html=1;align=center;shadow=0;dashed=0;spacingTop=3;image=img/lib/active_directory/internet_cloud.svg;" vertex="1" parent="1">
          <mxGeometry x="416" y="30" width="50" height="31.5" as="geometry" />
        </mxCell>
        <mxCell id="R1mZsVE5FB00UeXDSoug-34" style="rounded=0;orthogonalLoop=1;jettySize=auto;html=1;entryX=0.75;entryY=1;entryDx=0;entryDy=0;shape=link;fillColor=#dae8fc;strokeColor=#6c8ebf;exitX=0;exitY=0.85;exitDx=0;exitDy=0;exitPerimeter=0;" edge="1" parent="1" source="R1mZsVE5FB00UeXDSoug-42" target="R1mZsVE5FB00UeXDSoug-7">
          <mxGeometry relative="1" as="geometry">
            <mxPoint x="730.0035590419702" y="435.4658282035916" as="sourcePoint" />
            <Array as="points">
              <mxPoint x="530" y="440" />
            </Array>
          </mxGeometry>
        </mxCell>
        <mxCell id="R1mZsVE5FB00UeXDSoug-35" value="8. Send Response Action" style="edgeLabel;html=1;align=center;verticalAlign=middle;resizable=0;points=[];" vertex="1" connectable="0" parent="R1mZsVE5FB00UeXDSoug-34">
          <mxGeometry x="-0.1927" y="-1" relative="1" as="geometry">
            <mxPoint as="offset" />
          </mxGeometry>
        </mxCell>
        <mxCell id="R1mZsVE5FB00UeXDSoug-12" style="edgeStyle=orthogonalEdgeStyle;rounded=0;orthogonalLoop=1;jettySize=auto;html=1;shape=link;fillColor=#e1d5e7;strokeColor=#9673a6;" edge="1" parent="1" source="R1mZsVE5FB00UeXDSoug-41" target="R1mZsVE5FB00UeXDSoug-6">
          <mxGeometry relative="1" as="geometry">
            <mxPoint x="441" y="660" as="sourcePoint" />
          </mxGeometry>
        </mxCell>
        <mxCell id="R1mZsVE5FB00UeXDSoug-13" value="1. Send event" style="edgeLabel;html=1;align=center;verticalAlign=middle;resizable=0;points=[];" vertex="1" connectable="0" parent="R1mZsVE5FB00UeXDSoug-12">
          <mxGeometry x="-0.0313" y="2" relative="1" as="geometry">
            <mxPoint x="1" as="offset" />
          </mxGeometry>
        </mxCell>
        <mxCell id="R1mZsVE5FB00UeXDSoug-15" value="" style="edgeStyle=orthogonalEdgeStyle;rounded=0;orthogonalLoop=1;jettySize=auto;html=1;shape=link;fillColor=#e1d5e7;strokeColor=#9673a6;" edge="1" parent="1" source="R1mZsVE5FB00UeXDSoug-6" target="R1mZsVE5FB00UeXDSoug-7">
          <mxGeometry relative="1" as="geometry">
            <mxPoint x="441" y="220" as="targetPoint" />
            <mxPoint x="437" y="440" as="sourcePoint" />
          </mxGeometry>
        </mxCell>
        <mxCell id="R1mZsVE5FB00UeXDSoug-16" style="edgeStyle=orthogonalEdgeStyle;rounded=0;orthogonalLoop=1;jettySize=auto;html=1;shape=link;fillColor=#e1d5e7;strokeColor=#9673a6;" edge="1" parent="1" source="R1mZsVE5FB00UeXDSoug-7" target="R1mZsVE5FB00UeXDSoug-8">
          <mxGeometry relative="1" as="geometry" />
        </mxCell>
        <mxCell id="R1mZsVE5FB00UeXDSoug-17" value="2. Received Emails" style="edgeLabel;html=1;align=center;verticalAlign=middle;resizable=0;points=[];" vertex="1" connectable="0" parent="R1mZsVE5FB00UeXDSoug-16">
          <mxGeometry x="0.2212" relative="1" as="geometry">
            <mxPoint as="offset" />
          </mxGeometry>
        </mxCell>
        <mxCell id="R1mZsVE5FB00UeXDSoug-32" style="rounded=0;orthogonalLoop=1;jettySize=auto;html=1;shape=link;fillColor=#ffe6cc;strokeColor=#d79b00;" edge="1" parent="1" source="R1mZsVE5FB00UeXDSoug-7" target="R1mZsVE5FB00UeXDSoug-42">
          <mxGeometry relative="1" as="geometry">
            <mxPoint x="731.6124862295824" y="425.28118223463935" as="targetPoint" />
          </mxGeometry>
        </mxCell>
        <mxCell id="R1mZsVE5FB00UeXDSoug-33" value="7. Send and Receive Email" style="edgeLabel;html=1;align=center;verticalAlign=middle;resizable=0;points=[];" vertex="1" connectable="0" parent="R1mZsVE5FB00UeXDSoug-32">
          <mxGeometry x="-0.1479" y="-2" relative="1" as="geometry">
            <mxPoint as="offset" />
          </mxGeometry>
        </mxCell>
        <mxCell id="R1mZsVE5FB00UeXDSoug-36" style="rounded=0;orthogonalLoop=1;jettySize=auto;html=1;entryX=0;entryY=1;entryDx=0;entryDy=0;shape=link;fillColor=#dae8fc;strokeColor=#6c8ebf;" edge="1" parent="1" source="R1mZsVE5FB00UeXDSoug-7" target="R1mZsVE5FB00UeXDSoug-10">
          <mxGeometry relative="1" as="geometry">
            <Array as="points">
              <mxPoint x="360" y="170" />
            </Array>
          </mxGeometry>
        </mxCell>
        <mxCell id="R1mZsVE5FB00UeXDSoug-7" value="Internet" style="image;aspect=fixed;perimeter=ellipsePerimeter;html=1;align=center;shadow=0;dashed=0;spacingTop=3;image=img/lib/active_directory/internet_cloud.svg;" vertex="1" parent="1">
          <mxGeometry x="416" y="260" width="50" height="31.5" as="geometry" />
        </mxCell>
        <mxCell id="R1mZsVE5FB00UeXDSoug-41" value="Windows 10 Client&lt;br&gt;Wazuh Agent" style="verticalAlign=top;verticalLabelPosition=bottom;labelPosition=center;align=center;html=1;outlineConnect=0;fillColor=#f8cecc;strokeColor=#b85450;gradientDirection=north;strokeWidth=2;shape=mxgraph.networks.pc;" vertex="1" parent="1">
          <mxGeometry x="386.5" y="590" width="100" height="70" as="geometry" />
        </mxCell>
        <mxCell id="R1mZsVE5FB00UeXDSoug-42" value="SOC Analyst" style="fontColor=#0066CC;verticalAlign=top;verticalLabelPosition=bottom;labelPosition=center;align=center;html=1;outlineConnect=0;fillColor=#CCCCCC;strokeColor=#6881B3;gradientColor=none;gradientDirection=north;strokeWidth=2;shape=mxgraph.networks.pc;" vertex="1" parent="1">
          <mxGeometry x="690" y="390" width="100" height="70" as="geometry" />
        </mxCell>
        <mxCell id="R1mZsVE5FB00UeXDSoug-44" style="edgeStyle=orthogonalEdgeStyle;rounded=0;orthogonalLoop=1;jettySize=auto;html=1;" edge="1" parent="1" source="R1mZsVE5FB00UeXDSoug-43">
          <mxGeometry relative="1" as="geometry">
            <mxPoint x="190" y="873" as="targetPoint" />
          </mxGeometry>
        </mxCell>
        <mxCell id="R1mZsVE5FB00UeXDSoug-43" value="Windows 10&lt;div&gt;Send Events&lt;/div&gt;" style="text;html=1;align=center;verticalAlign=middle;resizable=0;points=[];autosize=1;strokeColor=none;fillColor=none;" vertex="1" parent="1">
          <mxGeometry x="15" y="853" width="90" height="40" as="geometry" />
        </mxCell>
        <mxCell id="R1mZsVE5FB00UeXDSoug-46" style="edgeStyle=orthogonalEdgeStyle;rounded=0;orthogonalLoop=1;jettySize=auto;html=1;" edge="1" parent="1" source="R1mZsVE5FB00UeXDSoug-45">
          <mxGeometry relative="1" as="geometry">
            <mxPoint x="520" y="870" as="targetPoint" />
          </mxGeometry>
        </mxCell>
        <mxCell id="R1mZsVE5FB00UeXDSoug-45" value="Wazuh Manager&lt;div&gt;Trigger alerts &amp;amp; Perform response actions&lt;/div&gt;" style="text;html=1;align=center;verticalAlign=middle;resizable=0;points=[];autosize=1;strokeColor=none;fillColor=none;" vertex="1" parent="1">
          <mxGeometry x="190" y="850" width="250" height="40" as="geometry" />
        </mxCell>
        <mxCell id="R1mZsVE5FB00UeXDSoug-48" style="edgeStyle=orthogonalEdgeStyle;rounded=0;orthogonalLoop=1;jettySize=auto;html=1;" edge="1" parent="1" source="R1mZsVE5FB00UeXDSoug-47">
          <mxGeometry relative="1" as="geometry">
            <mxPoint x="665" y="760" as="targetPoint" />
          </mxGeometry>
        </mxCell>
        <mxCell id="R1mZsVE5FB00UeXDSoug-47" value="Shuffle&lt;br&gt;Receive Wazuh Alerts &amp;amp; Send responsive actions" style="text;html=1;align=center;verticalAlign=middle;resizable=0;points=[];autosize=1;strokeColor=none;fillColor=none;" vertex="1" parent="1">
          <mxGeometry x="520" y="853" width="290" height="40" as="geometry" />
        </mxCell>
        <mxCell id="R1mZsVE5FB00UeXDSoug-49" value="OSINT&lt;br&gt;Enrich IOCS" style="text;html=1;align=center;verticalAlign=middle;resizable=0;points=[];autosize=1;strokeColor=none;fillColor=none;" vertex="1" parent="1">
          <mxGeometry x="615" y="723" width="90" height="40" as="geometry" />
        </mxCell>
        <mxCell id="R1mZsVE5FB00UeXDSoug-50" value="The HIVE&lt;br&gt;Create alert in case management system&amp;nbsp;" style="text;html=1;align=center;verticalAlign=middle;resizable=0;points=[];autosize=1;strokeColor=none;fillColor=none;" vertex="1" parent="1">
          <mxGeometry x="550" y="990" width="250" height="40" as="geometry" />
        </mxCell>
        <mxCell id="R1mZsVE5FB00UeXDSoug-52" value="Email&lt;div&gt;Send emails &amp;amp; responsive actions&lt;/div&gt;" style="text;html=1;align=center;verticalAlign=middle;resizable=0;points=[];autosize=1;strokeColor=none;fillColor=none;" vertex="1" parent="1">
          <mxGeometry x="836" y="853" width="200" height="40" as="geometry" />
        </mxCell>
        <mxCell id="R1mZsVE5FB00UeXDSoug-53" style="rounded=0;orthogonalLoop=1;jettySize=auto;html=1;entryX=-0.04;entryY=0.5;entryDx=0;entryDy=0;entryPerimeter=0;" edge="1" parent="1" source="R1mZsVE5FB00UeXDSoug-47" target="R1mZsVE5FB00UeXDSoug-52">
          <mxGeometry relative="1" as="geometry" />
        </mxCell>
        <mxCell id="R1mZsVE5FB00UeXDSoug-54" style="edgeStyle=orthogonalEdgeStyle;rounded=0;orthogonalLoop=1;jettySize=auto;html=1;entryX=0.46;entryY=0.025;entryDx=0;entryDy=0;entryPerimeter=0;" edge="1" parent="1" source="R1mZsVE5FB00UeXDSoug-47" target="R1mZsVE5FB00UeXDSoug-50">
          <mxGeometry relative="1" as="geometry" />
        </mxCell>
      </root>
    </mxGraphModel>
  </diagram>
</mxfile>
